<svg width="101" height="19" viewBox="0 0 101 19" fill="none" xmlns="http://www.w3.org/2000/svg">
<path d="M15.248 5.736C15.248 7.464 14.648 8.808 13.448 9.768C12.264 10.712 10.696 11.184 8.744 11.184H5.144C4.968 11.184 4.88 11.272 4.88 11.448V17.448C4.88 17.816 4.672 18 4.256 18H1.184C0.992 18 0.856 17.96 0.776 17.88C0.712 17.8 0.68 17.68 0.68 17.52V0.647999C0.68 0.343999 0.808 0.191999 1.064 0.191999H8.264C9.592 0.191999 10.776 0.399999 11.816 0.816C12.872 1.216 13.704 1.832 14.312 2.664C14.936 3.496 15.248 4.52 15.248 5.736ZM10.928 5.664C10.928 4.848 10.664 4.232 10.136 3.816C9.608 3.4 8.896 3.192 8 3.192H5.336C5.176 3.192 5.056 3.224 4.976 3.288C4.912 3.352 4.88 3.464 4.88 3.624V7.728C4.88 7.888 4.904 8.008 4.952 8.088C5 8.152 5.088 8.184 5.216 8.184H8.168C9.016 8.184 9.688 7.96 10.184 7.512C10.68 7.064 10.928 6.448 10.928 5.664ZM22.4182 18.24C21.1542 18.24 20.0342 17.968 19.0582 17.424C18.0982 16.864 17.3462 16.088 16.8022 15.096C16.2582 14.104 15.9862 12.976 15.9862 11.712C15.9862 10.4 16.2582 9.24 16.8022 8.232C17.3622 7.224 18.1302 6.44 19.1062 5.88C20.0982 5.32 21.2102 5.04 22.4422 5.04C23.7062 5.04 24.8262 5.328 25.8022 5.904C26.7782 6.464 27.5302 7.248 28.0582 8.256C28.6022 9.264 28.8742 10.408 28.8742 11.688C28.8742 12.952 28.6022 14.08 28.0582 15.072C27.5142 16.064 26.7542 16.84 25.7782 17.4C24.8022 17.96 23.6822 18.24 22.4182 18.24ZM22.4422 15.792C23.3222 15.792 23.9862 15.448 24.4342 14.76C24.8982 14.056 25.1302 13.016 25.1302 11.64C25.1302 10.248 24.8982 9.2 24.4342 8.496C23.9862 7.776 23.3222 7.416 22.4422 7.416C21.5622 7.416 20.8902 7.776 20.4262 8.496C19.9622 9.2 19.7302 10.248 19.7302 11.64C19.7302 13 19.9622 14.032 20.4262 14.736C20.8902 15.44 21.5622 15.792 22.4422 15.792ZM31.4334 18C31.0974 18 30.9294 17.84 30.9294 17.52V5.736C30.9294 5.432 31.0574 5.28 31.3134 5.28H34.1214C34.3774 5.28 34.5054 5.416 34.5054 5.688V7.104C34.5054 7.168 34.5214 7.216 34.5534 7.248C34.5854 7.28 34.6174 7.296 34.6494 7.296C34.6974 7.296 34.7614 7.256 34.8414 7.176C35.3214 6.536 35.8894 6.024 36.5454 5.64C37.2014 5.24 37.8254 5.04 38.4174 5.04C38.9934 5.04 39.2814 5.176 39.2814 5.448V8.232C39.2814 8.344 39.2494 8.432 39.1854 8.496C39.1214 8.56 39.0334 8.576 38.9214 8.544C38.4094 8.416 37.8494 8.352 37.2414 8.352C36.8414 8.352 36.4334 8.456 36.0174 8.664C35.6174 8.856 35.2814 9.12 35.0094 9.456C34.7534 9.776 34.6254 10.104 34.6254 10.44V17.448C34.6254 17.816 34.4174 18 34.0014 18H31.4334ZM46.5001 7.824C46.3241 7.824 46.2361 7.92 46.2361 8.112V13.896C46.2361 14.44 46.3641 14.832 46.6201 15.072C46.8761 15.296 47.2841 15.408 47.8441 15.408H49.1401C49.2521 15.408 49.3401 15.448 49.4041 15.528C49.4681 15.592 49.5001 15.688 49.5001 15.816L49.4761 17.28C49.4761 17.6 49.3001 17.792 48.9481 17.856C48.2761 17.952 47.3241 18 46.0921 18C44.9721 18 44.1001 17.736 43.4761 17.208C42.8521 16.68 42.5401 15.912 42.5401 14.904V8.184C42.5401 7.944 42.4361 7.824 42.2281 7.824H40.7641C40.4601 7.824 40.3081 7.688 40.3081 7.416V5.64C40.3081 5.4 40.4521 5.28 40.7401 5.28H42.3961C42.5241 5.28 42.6041 5.192 42.6361 5.016L42.9721 1.368C43.0041 1.096 43.1241 0.959999 43.3321 0.959999H45.9481C46.0601 0.959999 46.1481 0.999999 46.2121 1.08C46.2921 1.16 46.3321 1.272 46.3321 1.416V5.016C46.3321 5.176 46.4121 5.256 46.5721 5.256H49.0921C49.3801 5.256 49.5241 5.384 49.5241 5.64V7.416C49.5241 7.688 49.3641 7.824 49.0441 7.824H46.5001ZM58.8995 5.28C59.0435 5.28 59.1555 5.32 59.2355 5.4C59.3155 5.48 59.3555 5.576 59.3555 5.688V7.464C59.3555 7.704 59.2195 7.824 58.9475 7.824H56.9555C56.7955 7.824 56.7155 7.912 56.7155 8.088V17.544C56.7155 17.848 56.5875 18 56.3315 18H53.3795C53.1395 18 53.0195 17.864 53.0195 17.592V8.04C53.0195 7.896 52.9555 7.824 52.8275 7.824H51.0995C50.8115 7.824 50.6675 7.704 50.6675 7.464V5.688C50.6675 5.576 50.7075 5.48 50.7875 5.4C50.8675 5.32 50.9795 5.28 51.1235 5.28H52.7315C52.8435 5.28 52.9155 5.256 52.9475 5.208C52.9955 5.144 53.0195 5.048 53.0195 4.92V3.456C53.0195 2.432 53.3235 1.632 53.9315 1.056C54.5395 0.479999 55.3955 0.191999 56.4995 0.191999H58.9235C59.2755 0.191999 59.4515 0.359999 59.4515 0.696L59.4755 2.256C59.4755 2.528 59.3555 2.664 59.1155 2.664H57.8195C57.4675 2.664 57.1795 2.8 56.9555 3.072C56.7315 3.328 56.6195 3.664 56.6195 4.08V5.016C56.6195 5.192 56.7155 5.28 56.9075 5.28H58.8995ZM66.551 18.24C65.287 18.24 64.167 17.968 63.191 17.424C62.231 16.864 61.479 16.088 60.935 15.096C60.391 14.104 60.119 12.976 60.119 11.712C60.119 10.4 60.391 9.24 60.935 8.232C61.495 7.224 62.263 6.44 63.239 5.88C64.231 5.32 65.343 5.04 66.575 5.04C67.839 5.04 68.959 5.328 69.935 5.904C70.911 6.464 71.663 7.248 72.191 8.256C72.735 9.264 73.007 10.408 73.007 11.688C73.007 12.952 72.735 14.08 72.191 15.072C71.647 16.064 70.887 16.84 69.911 17.4C68.935 17.96 67.815 18.24 66.551 18.24ZM66.575 15.792C67.455 15.792 68.119 15.448 68.567 14.76C69.031 14.056 69.263 13.016 69.263 11.64C69.263 10.248 69.031 9.2 68.567 8.496C68.119 7.776 67.455 7.416 66.575 7.416C65.695 7.416 65.023 7.776 64.559 8.496C64.095 9.2 63.863 10.248 63.863 11.64C63.863 13 64.095 14.032 64.559 14.736C65.023 15.44 65.695 15.792 66.575 15.792ZM78.7822 17.424C78.7822 17.632 78.7342 17.784 78.6382 17.88C78.5422 17.96 78.3742 18 78.1342 18H75.5902C75.3982 18 75.2622 17.96 75.1822 17.88C75.1022 17.8 75.0622 17.672 75.0622 17.496L75.1342 0.647999C75.1342 0.343999 75.2622 0.191999 75.5182 0.191999H78.4222C78.6622 0.191999 78.7822 0.335999 78.7822 0.623999V17.424ZM85.1812 3.144C85.1812 3.544 84.9652 3.744 84.5332 3.744H81.9412C81.7492 3.744 81.6132 3.704 81.5332 3.624C81.4532 3.528 81.4132 3.384 81.4132 3.192V0.671999C81.4132 0.351999 81.5492 0.191999 81.8212 0.191999H84.7972C84.9092 0.191999 84.9972 0.231999 85.0612 0.311999C85.1412 0.391999 85.1812 0.503999 85.1812 0.647999V3.144ZM85.1332 17.424C85.1332 17.632 85.0852 17.784 84.9892 17.88C84.8932 17.96 84.7252 18 84.4852 18H81.9652C81.7732 18 81.6372 17.96 81.5572 17.88C81.4772 17.8 81.4372 17.672 81.4372 17.496V5.736C81.4372 5.432 81.5732 5.28 81.8452 5.28H84.7732C85.0132 5.28 85.1332 5.416 85.1332 5.688V17.424ZM93.6448 18.24C92.3808 18.24 91.2608 17.968 90.2848 17.424C89.3248 16.864 88.5728 16.088 88.0288 15.096C87.4848 14.104 87.2128 12.976 87.2128 11.712C87.2128 10.4 87.4848 9.24 88.0288 8.232C88.5888 7.224 89.3568 6.44 90.3328 5.88C91.3248 5.32 92.4368 5.04 93.6688 5.04C94.9328 5.04 96.0528 5.328 97.0288 5.904C98.0048 6.464 98.7568 7.248 99.2848 8.256C99.8288 9.264 100.101 10.408 100.101 11.688C100.101 12.952 99.8288 14.08 99.2848 15.072C98.7408 16.064 97.9808 16.84 97.0048 17.4C96.0288 17.96 94.9088 18.24 93.6448 18.24ZM93.6688 15.792C94.5488 15.792 95.2128 15.448 95.6608 14.76C96.1248 14.056 96.3568 13.016 96.3568 11.64C96.3568 10.248 96.1248 9.2 95.6608 8.496C95.2128 7.776 94.5488 7.416 93.6688 7.416C92.7888 7.416 92.1168 7.776 91.6528 8.496C91.1888 9.2 90.9568 10.248 90.9568 11.64C90.9568 13 91.1888 14.032 91.6528 14.736C92.1168 15.44 92.7888 15.792 93.6688 15.792Z" fill="white"/>
</svg>
